<?xml version="1.0" encoding="UTF-8"?>
<svg xmlns="http://www.w3.org/2000/svg" width="71" height="28" viewBox="0 0 71 28" fill="none">
  <mask id="mask0_220_2284" style="mask-type:luminance" maskUnits="userSpaceOnUse" x="0" y="0" width="71" height="28">
    <path d="M71 0.15918H0V27.841H71V0.15918Z" fill="white"></path>
  </mask>
  <g mask="url(#mask0_220_2284)">
    <path d="M25.3432 10.8778C27.9075 11.2795 29.8701 10.8103 31.6461 9.63759L18.1989 27.841L0 3.04279C0 3.04279 2.97274 0.15918 7.9218 0.15918C15.1858 0.15918 19.6038 9.97757 25.3432 10.8778Z" fill="white"></path>
    <path d="M32.8187 1.31152C28.6427 1.31152 25.9127 5.23711 20.9658 6.58897C22.7404 8.36452 25.1944 9.78319 27.2939 9.78319C30.2962 9.78319 32.2451 8.82566 33.4454 7.20799L36.7805 2.74782C36.7805 2.74782 35.0825 1.31226 32.8187 1.31226" fill="white"></path>
    <path d="M45.7822 14.2412H43.9674L41.6055 20.7376C41.4695 21.1136 41.3874 21.3632 41.3874 21.3632H41.36C41.36 21.3632 39.5039 16.6057 38.5487 14.2412H36.6377L39.9946 22.6013C40.1861 23.0881 40.7992 23.8958 42.0012 23.8958L45.7822 14.2419V14.2412Z" fill="white"></path>
    <path d="M63.1625 23.7556V22.2532H59.006V14.2412H57.2998V23.7556H63.1625Z" fill="white"></path>
    <path d="M70.7932 23.7556V22.2532H66.8469V19.5275H70.1813V18.0801H66.8469V15.7429H69.1179C70.9021 15.7429 70.9999 14.2412 70.9999 14.2412H65.1416V23.7556H70.7938H70.7932Z" fill="white"></path>
    <path d="M51.907 19.8337H49.464L50.6785 16.6204L50.6924 16.5646L51.907 19.8337ZM55.3055 23.7563L51.593 14.2412H49.9688L46.1064 23.7563H47.9291L48.8631 21.3361H52.4668L53.3948 23.7563H55.3055Z" fill="white"></path>
  </g>
</svg>
